<?xml version="1.0" encoding="utf-8"?>
<!-- Generator: Adobe Illustrator 17.0.0, SVG Export Plug-In . SVG Version: 6.00 Build 0)  -->
<!DOCTYPE svg PUBLIC "-//W3C//DTD SVG 1.1//EN" "http://www.w3.org/Graphics/SVG/1.1/DTD/svg11.dtd">
<svg version="1.1" id="Camada_1" xmlns="http://www.w3.org/2000/svg" xmlns:xlink="http://www.w3.org/1999/xlink" x="0px" y="0px"
	 width="423.092px" height="93.364px" viewBox="0 0 423.092 93.364" enable-background="new 0 0 423.092 93.364"
	 xml:space="preserve">
<path fill="#020202" d="M0,23.736l35.436-0.09V0h9.02v23.879h56.041c0,0,17.574-1.143,17.943,16.185c0,0,0.86,7.865-6.39,13.642
	l7.865,12.167l17.083-42.276h12.904l18.803,46.947H157.89l-14.501-36.378l-14.502,36.378h-18.68L99.883,52.846
	c0,0,9.094-6.176,7.865-13.182c0,0-0.615-7.988-11.184-7.865H80.957v38.744H70.265V31.922H44.579v38.621h-9.267V31.922L0,32.012
	V23.736z"/>
<polygon fill="#020202" points="179.472,93.364 170.132,93.364 170.132,23.646 178.12,23.646 200.979,55.476 200.979,23.646 
	210.442,23.646 210.442,70.347 201.471,70.347 179.472,40.606 179.472,93.364 "/>
<path fill="#020202" d="M211.548,70.543l3.687-7.743h15.731c0,0,2.458,0.492,3.195-1.843c0,0,0.983-1.844-1.475-3.564
	l-14.625-11.921c0,0-5.899-4.547-4.916-12.167c0,0,1.229-8.357,10.446-9.586h31.83l13.519,36.378l12.904-36.255h9.463
	l-16.714,46.947h-11.429l-14.01-38.835h-23.596c0,0-2.704,0-3.195,2.089c0,0-0.492,2.089,1.352,3.441l16.099,13.15
	c0,0,4.793,3.687,3.687,10.2c0,0-0.737,9.709-11.183,9.709H211.548L211.548,70.543z"/>
<path fill="#020202" d="M423.092,32.043h-49.283c0,0-2.573-0.09-3.065,1.999c0,0-0.492,2.089,1.352,3.441l16.099,13.15
	c0,0,4.793,3.687,3.687,10.2c0,0-0.614,9.832-11.061,9.832l-20.989-0.038l3.784-7.827h15.731c0,0,2.688,0.182,3.195-1.843
	c0,0,0.73-1.905-1.475-3.564l-14.625-11.921c0,0-5.899-4.547-4.916-12.167c0,0,1.229-8.357,10.446-9.586h51.118V32.043
	L423.092,32.043z"/>
<polygon fill="#020202" points="295.118,70.688 304.335,70.688 304.335,23.842 295.118,23.842 295.118,70.688 "/>
<polygon fill="#020202" points="295.118,19.786 304.335,19.786 304.335,0.24 295.118,0.24 295.118,19.786 "/>
<polygon fill="#020202" points="306.547,70.665 325.597,23.842 338.132,23.842 356.935,70.644 346.243,70.644 331.741,34.288 
	317.32,70.627 306.547,70.665 "/>
</svg>
